<svg width="20" height="20" viewBox="0 0 20 20" fill="none" xmlns="http://www.w3.org/2000/svg">
<path d="M16.875 3H2.71875C1.99769 3 1.30617 3.28644 0.796304 3.7963C0.286439 4.30617 0 4.99769 0 5.71875V13.125C0 13.8212 0.276562 14.4889 0.768845 14.9812C1.26113 15.4734 1.92881 15.75 2.625 15.75H3V17.61C3 18.1113 3.19912 18.592 3.55357 18.9464C3.90801 19.3009 4.38874 19.5 4.89 19.5H14.61C15.1113 19.5 15.592 19.3009 15.9464 18.9464C16.3009 18.592 16.5 18.1113 16.5 17.61V15.75H16.875C17.5712 15.75 18.2389 15.4734 18.7312 14.9812C19.2234 14.4889 19.5 13.8212 19.5 13.125V5.625C19.5 4.92881 19.2234 4.26113 18.7312 3.76884C18.2389 3.27656 17.5712 3 16.875 3ZM15 17.61C14.9996 17.7133 14.9584 17.8123 14.8854 17.8854C14.8123 17.9584 14.7133 17.9996 14.61 18H4.89C4.78668 17.9996 4.6877 17.9584 4.61464 17.8854C4.54158 17.8123 4.50037 17.7133 4.5 17.61V10.14C4.50037 10.0367 4.54158 9.9377 4.61464 9.86464C4.6877 9.79158 4.78668 9.75037 4.89 9.75H14.61C14.7133 9.75037 14.8123 9.79158 14.8854 9.86464C14.9584 9.9377 14.9996 10.0367 15 10.14V17.61ZM16.2188 7.49625C15.9893 7.51469 15.7597 7.4623 15.561 7.34615C15.3622 7.23 15.2039 7.05568 15.1073 6.84671C15.0108 6.63774 14.9807 6.40418 15.0211 6.17756C15.0614 5.95093 15.1703 5.74214 15.3331 5.57937C15.4959 5.4166 15.7047 5.30768 15.9313 5.2673C16.1579 5.22693 16.3915 5.25705 16.6005 5.3536C16.8094 5.45014 16.9837 5.60847 17.0999 5.80721C17.2161 6.00596 17.2684 6.23555 17.25 6.465C17.2286 6.73136 17.1131 6.98141 16.9241 7.17036C16.7352 7.35932 16.4851 7.47484 16.2188 7.49625Z" fill="#999999"/>
<path d="M13.875 0H5.625C4.99407 0.000939512 4.38451 0.228732 3.90759 0.6418C3.43067 1.05487 3.11819 1.62566 3.02719 2.25H16.4728C16.3818 1.62566 16.0693 1.05487 15.5924 0.6418C15.1155 0.228732 14.5059 0.000939512 13.875 0Z" fill="#999999"/>
</svg>
