<svg width="20" height="22" viewBox="0 0 20 22" fill="none" xmlns="http://www.w3.org/2000/svg">
<path d="M16.6668 15.2274C16.2179 15.2272 15.7736 15.3195 15.3608 15.4986C14.948 15.6778 14.5752 15.9401 14.265 16.2697L6.55756 11.8638C6.70686 11.2942 6.70686 10.6948 6.55756 10.1252L14.265 5.71925C14.8262 6.31045 15.5804 6.67346 16.3861 6.74027C17.1919 6.80708 17.994 6.57311 18.6422 6.08219C19.2903 5.59127 19.7401 4.87709 19.9072 4.07344C20.0743 3.26978 19.9472 2.4318 19.5499 1.71648C19.1525 1.00117 18.5121 0.457589 17.7485 0.187589C16.985 -0.0824114 16.1508 -0.0603096 15.4022 0.249754C14.6536 0.559817 14.0419 1.13657 13.6817 1.87195C13.3216 2.60734 13.2377 3.45091 13.4458 4.24462L5.73838 8.65053C5.278 8.16281 4.68451 7.8262 4.03428 7.684C3.38405 7.5418 2.70682 7.60052 2.0897 7.85259C1.47258 8.10466 0.943811 8.53857 0.571407 9.09848C0.199002 9.6584 0 10.3187 0 10.9945C0 11.6703 0.199002 12.3306 0.571407 12.8905C0.943811 13.4504 1.47258 13.8843 2.0897 14.1364C2.70682 14.3885 3.38405 14.4472 4.03428 14.305C4.68451 14.1628 5.278 13.8262 5.73838 13.3385L13.4458 17.7444C13.2671 18.4279 13.3035 19.1511 13.55 19.8126C13.7964 20.474 14.2405 21.0405 14.8199 21.4324C15.3994 21.8244 16.085 22.0222 16.7807 21.998C17.4764 21.9739 18.1472 21.7291 18.699 21.2979C19.2508 20.8667 19.6558 20.2708 19.8573 19.5939C20.0588 18.9169 20.0466 18.1928 19.8225 17.5233C19.5983 16.8537 19.1735 16.2722 18.6075 15.8605C18.0415 15.4487 17.3629 15.2273 16.6668 15.2274Z" fill="#999999"/>
</svg>
